<svg xmlns="http://www.w3.org/2000/svg" width="268.667" height="58.583" viewBox="0 0 268.667 58.583">
  <g id="Group_21" data-name="Group 21" transform="translate(-30.776 -38.333)">
    <g id="Group_1" data-name="Group 1" transform="translate(30.776 38.333)">
      <path id="Path_1" data-name="Path 1" d="M32.25,38.333H74.776L73.3,49.512H59.036l-4.5,34.095H40.554l4.492-34.095H30.776Z" transform="translate(-30.776 -38.333)" fill="#003264"/>
      <path id="Path_2" data-name="Path 2" d="M76.74,60.99h-25.2A7.3,7.3,0,0,0,52.58,65.5a5.181,5.181,0,0,0,4.477,2.131A7.83,7.83,0,0,0,60.7,66.7a10.064,10.064,0,0,0,2.469-2.072L75.4,65.776a21.549,21.549,0,0,1-7.789,7.088q-4.3,2.146-11.8,2.146-6.518,0-10.013-1.837a12.424,12.424,0,0,1-5.423-5.839,16.38,16.38,0,0,1-1.215-9.405,19.046,19.046,0,0,1,6.564-12.443q5.555-4.754,14.231-4.757,7.039,0,10.836,2.131a11.873,11.873,0,0,1,5.393,6.177q1.6,4.041.745,10.532ZM64.748,54.964q.11-3.645-1.274-5.217A5,5,0,0,0,59.5,48.17a6.559,6.559,0,0,0-5.1,2.381,9.909,9.909,0,0,0-2.033,4.414Z" transform="translate(1.153 -28.992)" fill="#003264"/>
      <path id="Path_3" data-name="Path 3" d="M53.554,38.333h12.6L60.186,83.606h-12.6Z" transform="translate(34.764 -38.333)" fill="#003264"/>
      <path id="Path_4" data-name="Path 4" d="M89.651,60.99h-25.2A7.273,7.273,0,0,0,65.491,65.5a5.187,5.187,0,0,0,4.477,2.131,7.83,7.83,0,0,0,3.64-.926,10.064,10.064,0,0,0,2.469-2.072l12.232,1.146a21.549,21.549,0,0,1-7.789,7.088q-4.3,2.146-11.8,2.146-6.518,0-10.013-1.837a12.424,12.424,0,0,1-5.423-5.839,16.379,16.379,0,0,1-1.215-9.405,19.046,19.046,0,0,1,6.564-12.443q5.555-4.754,14.231-4.757,7.039,0,10.836,2.131a11.873,11.873,0,0,1,5.393,6.177q1.6,4.041.745,10.532ZM77.659,54.964q.11-3.645-1.274-5.217a5,5,0,0,0-3.978-1.577,6.559,6.559,0,0,0-5.1,2.381,9.91,9.91,0,0,0-2.033,4.414Z" transform="translate(51.488 -28.992)" fill="#003264"/>
      <path id="Path_5" data-name="Path 5" d="M88.729,41.469H100.5L96.414,72.443,96.253,73.9a15.759,15.759,0,0,1-6.172,10.4,15.8,15.8,0,0,1-5.859,2.5,35.781,35.781,0,0,1-7.774.769q-9.883,0-13.182-2.964a8.513,8.513,0,0,1-2.645-7.936c.054-.411.147-.97.279-1.666L72.916,76.4a3.377,3.377,0,0,0,1.112,2.346,5.414,5.414,0,0,0,3.365.96,5.959,5.959,0,0,0,4.252-1.45q1.528-1.455,2.008-5.065l.656-4.972c-1.43,1.46-8.352,4.722-10.6,4.722A10.679,10.679,0,0,1,63.843,67.2q-2.329-4.078-1.45-10.777Q63.4,48.755,67.64,44.741a14.327,14.327,0,0,1,10.223-4.012,12.518,12.518,0,0,1,6.143,1.3,11.325,11.325,0,0,1,4.085,4.291ZM74.807,57.375q-.47,3.549.818,5.266a4.412,4.412,0,0,0,3.757,1.715,5.818,5.818,0,0,0,4.174-1.778,8.878,8.878,0,0,0,2.3-5.359q.47-3.578-.945-5.482a4.535,4.535,0,0,0-3.826-1.9,5.42,5.42,0,0,0-4.076,1.744Q75.338,53.326,74.807,57.375Z" transform="translate(85.154 -28.992)" fill="#003264"/>
      <path id="Path_6" data-name="Path 6" d="M70.447,43.213H88.729l-1.283,9.729H69.164Z" transform="translate(118.885 -19.308)" fill="#003264"/>
      <path id="Path_7" data-name="Path 7" d="M77.982,41.469H89.719l-.632,4.786a19.894,19.894,0,0,1,5.682-4.262,15.168,15.168,0,0,1,6.4-1.264A10.967,10.967,0,0,1,107.2,42.12a8.544,8.544,0,0,1,3.194,4.134,22.958,22.958,0,0,1,5.971-4.37,15.079,15.079,0,0,1,6.167-1.156q5.276,0,7.823,3.135t1.665,9.8l-2.714,20.6h-12.6l2.464-18.683a4.854,4.854,0,0,0-.426-3.3,3.255,3.255,0,0,0-2.915-1.7,5.078,5.078,0,0,0-3.782,1.607,8.9,8.9,0,0,0-2.033,5.158l-2.234,16.92h-12.6L97.566,56.2a11.094,11.094,0,0,0,.137-2.934,3.272,3.272,0,0,0-3.356-2.748,5.128,5.128,0,0,0-3.777,1.641q-1.609,1.631-2.106,5.369l-2.2,16.739h-12.6Z" transform="translate(136.417 -28.992)" fill="#003264"/>
    </g>
  </g>
</svg>
